<svg id="Layer_1" data-name="Layer 1" xmlns="http://www.w3.org/2000/svg" viewBox="0 0 100 100"><defs><style>.cls-1{fill:#337382;}</style></defs><path class="cls-1" d="M68.61,52.8s1.07,1.12.21,3.39-5.52,5.68-5.52,5.68-3.69-1.1-4.06-4.53c0,0,2.82-3.88,5.64-5.52A2.8,2.8,0,0,1,68.61,52.8Z"/><path class="cls-1" d="M57.42,40.59a14.15,14.15,0,0,0-5.92-3.86c-3.22-.83.38,4.08,2.45,4.69S57.36,41.29,57.42,40.59Z"/><path class="cls-1" d="M65.43,36s-.51-4.17-2.74-6.75-2.08,3.7-.68,5.43S65,36.55,65.43,36Z"/><path class="cls-1" d="M85.58,45.07a13.47,13.47,0,0,0,1.89-6.22c0-3.11-3.37,1.22-3.4,3.24S85,45.17,85.58,45.07Z"/><path class="cls-1" d="M61,91.05a44.15,44.15,0,0,0,5.81-2.19A53.2,53.2,0,0,0,72.3,86a57.91,57.91,0,0,0,5.14-3.48c.8-.65,1.62-1.27,2.39-2,.38-.34.78-.67,1.15-1l1.11-1.08a43.85,43.85,0,0,0,7.44-9.81,42.48,42.48,0,0,0,4.3-11.52A53.67,53.67,0,0,0,95,44.85l-.15-3.08c0-.52-.07-1-.12-1.54s-.1-1-.17-1.53a42.92,42.92,0,0,0-1.21-6A39.83,39.83,0,0,0,80.24,12.35,47.72,47.72,0,0,0,58.06,2.28,50.07,50.07,0,0,0,33.7,3.9,39.19,39.19,0,0,0,22.78,9.49c-.83.61-1.63,1.26-2.4,1.94-.39.33-.76.69-1.13,1s-.71.75-1.06,1.12l-1.06,1.13-.53.57-.5.59c-.66.79-1.34,1.58-2,2.38A53.48,53.48,0,0,0,7.52,28.73l-.65,1.41-.59,1.43c-.09.25-.19.48-.28.73L5.75,33c-.17.49-.35,1-.49,1.47-.3,1-.57,2-.77,3l-.15.76L4.22,39a13.33,13.33,0,0,0-.15,1.55A13.3,13.3,0,0,1,4.18,39l.1-.78.13-.76a31.16,31.16,0,0,1,.7-3c.12-.51.3-1,.45-1.49l.24-.74c.09-.25.18-.49.28-.73L6.63,30l.63-1.43A53.15,53.15,0,0,1,13.7,17.94c.64-.83,1.31-1.62,2-2.43l.5-.6.52-.58,1.06-1.15c.35-.38.7-.77,1.06-1.15S19.56,11.3,20,11c.78-.7,1.59-1.37,2.42-2A40.33,40.33,0,0,1,33.44,3.12,46.82,46.82,0,0,1,45.72.66a52.93,52.93,0,0,1,12.51.66A48.73,48.73,0,0,1,80.92,11.53,40.7,40.7,0,0,1,94.3,32.42a44.42,44.42,0,0,1,1.21,6.16c.07.52.12,1,.17,1.56s.1,1,.11,1.57l.14,3.13a52.11,52.11,0,0,1-1.3,12.45A43.25,43.25,0,0,1,90.12,69l-.8,1.34c-.14.23-.27.46-.41.67l-.44.65-.88,1.3c-.31.42-.64.83-1,1.24-.61.84-1.32,1.61-2,2.41-.34.39-.72.75-1.07,1.14s-.72.76-1.11,1.1l-1.14,1.07c-.38.36-.79.68-1.18,1-.79.69-1.63,1.3-2.45,1.94a54.57,54.57,0,0,1-5.24,3.4A49.27,49.27,0,0,1,61,91.05Z"/><path class="cls-1" d="M55.8,24.25a9.66,9.66,0,0,0-8.23,8.5l-.3,3.08L47,32.75a9.66,9.66,0,0,0-8.23-8.5A9.64,9.64,0,0,0,47,15.76l.3-3.08.3,3.08A9.64,9.64,0,0,0,55.8,24.25Z"/><path class="cls-1" d="M57.42,9.71a3.29,3.29,0,0,0-2.78,2.9l-.1,1.06-.1-1.06a3.29,3.29,0,0,0-2.78-2.9,3.29,3.29,0,0,0,2.78-2.9l.1-1.06.1,1.06A3.29,3.29,0,0,0,57.42,9.71Z"/><path class="cls-1" d="M39.21,35.05A3.26,3.26,0,0,0,36.43,38l-.11,1-.1-1a3.27,3.27,0,0,0-2.78-2.9,3.29,3.29,0,0,0,2.78-2.91l.1-1.05.11,1.05A3.28,3.28,0,0,0,39.21,35.05Z"/><path class="cls-1" d="M67.16,21.88a2,2,0,0,0-1.67,1.74l-.06.63-.06-.63a2,2,0,0,0-1.67-1.74,2,2,0,0,0,1.67-1.74l.06-.64.06.64A2,2,0,0,0,67.16,21.88Z"/><path class="cls-1" d="M57,32.67a2,2,0,0,0-1.67,1.74l-.06.64-.06-.64a2,2,0,0,0-1.67-1.74,2,2,0,0,0,1.67-1.74l.06-.63.06.63A2,2,0,0,0,57,32.67Z"/><path class="cls-1" d="M33.44,12.88a2,2,0,0,0-1.67,1.74l-.06.63-.06-.63A2,2,0,0,0,30,12.88a2,2,0,0,0,1.67-1.74l.06-.64.06.64A2,2,0,0,0,33.44,12.88Z"/><path class="cls-1" d="M53.61,51.64c.27,1.23.5,2.47.65,3.72a31.41,31.41,0,0,1,.3,4c1.11-1.08,2.25-2.12,3.43-3.1.3-.26.62-.49.93-.74A14.65,14.65,0,0,0,58,53.62c-.36-.64-.78-1.26-1.19-1.87s-.87-1.19-1.33-1.77l-.71-.86-.71-.82c-.3-.28-.6-.56-.89-.85s-.59-.63-.86-1-.48-.63-.69-1a18.23,18.23,0,0,1,1,2.47A33.42,33.42,0,0,1,53.61,51.64Z"/><path class="cls-1" d="M45.29,93.7a42.38,42.38,0,0,1,7.22-4.06c2.5-1.15,5-2.19,7.5-3.37a39.71,39.71,0,0,0,7-4.15h0l0,0a14.71,14.71,0,0,0,3.4-3.66A44.8,44.8,0,0,0,73.11,74c1.64-3,3.12-6.19,4.5-9.38s2.68-6.42,3.93-9.67c.62-1.62,1.25-3.25,1.85-4.89s1.16-3.17,1.72-4.77a3.22,3.22,0,0,1-1.45-2.71,6.83,6.83,0,0,1,1.19-3.69,22.06,22.06,0,0,0-3.19,3,29.15,29.15,0,0,0-2.83,3.81A35.63,35.63,0,0,0,75,54.32l-.62,2.29c-.11.39-.26.82-.39,1.21s-.34.77-.53,1.14a25.84,25.84,0,0,1-2.76,4,52.32,52.32,0,0,1-6.81,6.83C66,67.45,68.11,65,70,62.48a29.35,29.35,0,0,0,2.42-3.8c-.49-1.85-.91-4.32-1.42-6.13s-1-3.68-1.58-5.5L69,45.69c-.15-.46-.3-.91-.44-1.36-.3-.91-.62-1.81-.93-2.71q-.93-2.65-1.95-5.3c-.52.48-1.92.51-3.48-.69a7.43,7.43,0,0,1-2-3.84,5.64,5.64,0,0,0-.87,2.29,5.33,5.33,0,0,0,.26,2.54A14.53,14.53,0,0,0,60.85,39,21.22,21.22,0,0,1,62,41.58a27.6,27.6,0,0,1,.78,2.69c.17.83.33,1.65.43,2.49l0,.05.07.11a.62.62,0,0,1,.07.18,4.85,4.85,0,0,1,.16.91q0,.42,0,.84a15.12,15.12,0,0,1-.21,2.52c0,.41-.07.82-.13,1.22,0-.51-.12-1-.18-1.51-.12-.73-.23-1.45-.34-2.16,0-.27-.08-.53-.13-.79a4.64,4.64,0,0,0-.17-.69L62,46.86l-.45-.65c-.62-.86-1.29-1.69-2-2.51s-1.39-1.6-2.11-2.41a3.68,3.68,0,0,1-2.9.72,7.47,7.47,0,0,1-3.91-2.48,7.82,7.82,0,0,0,.45,2.27,11.08,11.08,0,0,0,1,2.17,14.81,14.81,0,0,0,1.43,1.93c.25.3.54.58.81.88l.89.82,0,0,0,0,.73.88c.23.3.47.61.69.92A20.4,20.4,0,0,1,58,51.39a13.6,13.6,0,0,1,1,2.09,8,8,0,0,1,.5,2.1c.9-.71,1.81-1.4,2.76-2A15.57,15.57,0,0,1,65,51.39a3.09,3.09,0,0,1,4.12,1.08s1.19,1.25.24,3.76a11.14,11.14,0,0,1-2.72,3.44,45.69,45.69,0,0,1-3.79,6A68.32,68.32,0,0,1,58,71.57c-.43.48-.88.92-1.33,1.38s-.87.92-1.34,1.35c-.93.88-1.84,1.76-2.82,2.58a56.71,56.71,0,0,1-6.08,4.6c.91-.89,1.87-1.72,2.78-2.6s1.84-1.72,2.73-2.62c.45-.45.91-.88,1.35-1.32l1.32-1.35c.45-.45.88-.91,1.31-1.36s.87-.91,1.29-1.38l1.28-1.39L59.72,68c.83-.94,1.64-1.9,2.45-2.87,1.4-1.68,2.76-3.39,4.08-5.15-1.53,1.4-3,2.5-3,2.5s-4.09-1.23-4.5-5a34.21,34.21,0,0,1,3.31-3.78c-1.14.93-2.23,1.91-3.29,2.92S56.5,58.86,55.43,60s-2.13,2.34-3.12,3.57c-.51.61-1,1.23-1.5,1.85s-1,1.25-1.43,1.88h0l0,.05a18.5,18.5,0,0,1-1.6,1.45A9.8,9.8,0,0,1,45.88,70a5.82,5.82,0,0,1-2.2.6,13.79,13.79,0,0,1-2.17-.09c-2.68-.34-5.13,1.13-7.3,2.78a29.77,29.77,0,0,0-3.09,2.75c-1,1-1.93,2-2.83,3a40.87,40.87,0,0,0-2.54,3.31c-.38.58-.77,1.16-1.12,1.76s-.61,1.08-.87,1.65L39.67,99.28l-.18.26A24.37,24.37,0,0,1,45.29,93.7Z"/></svg>